# xmcd
#
# Track frame offsets:
#	150
#	15762
#	32295
#	50997
#	63592
#	77270
#	97277
#	115677
#	132067
#	146702
#	157909
#	171942
#	194509
#	204412
#	216455
#
# Disc length: 3116 seconds
#
# Revision: 1
# Processed by: cddbd v1.5.1PL2 Copyright (c) Steve Scherf et al.
# Submitted via: audiograbber 1.83.01
#
DISCID=cd0c2a0f
DTITLE=David West and others - Gospel Guitars
DYEAR=1997
DGENRE=Gospel
TTITLE0=Sing a Joyful Song Unto The Lord
TTITLE1=Amazing Grace
TTITLE2=In Christ  There Is No East or  West
TTITLE3=Go Tell It on The Mountain
TTITLE4=Great Dreams of Heaven
TTITLE5=Ave Maria
TTITLE6=The Battle Belongs to The Lord
TTITLE7=Peace in The Valley
TTITLE8=Down by The Riverside
TTITLE9=Be Thou My Vision
TTITLE10=As The Deer
TTITLE11=That Old Country Church Medley
TTITLE12=Everlasting Faith in Thee
TTITLE13=Do Lord Remember Me
TTITLE14=What A Friend We Have in Jesus
EXTD=Produced by David West\nSanta Barbara, CA
EXTT0=
EXTT1=
EXTT2=
EXTT3=
EXTT4=
EXTT5=
EXTT6=
EXTT7=
EXTT8=
EXTT9=
EXTT10=
EXTT11=
EXTT12=
EXTT13=
EXTT14=
PLAYORDER=
